<?xml version="1.0" encoding="UTF-8" standalone="no"?>
<svg
   xmlns:dc="http://purl.org/dc/elements/1.1/"
   xmlns:cc="http://creativecommons.org/ns#"
   xmlns:rdf="http://www.w3.org/1999/02/22-rdf-syntax-ns#"
   xmlns:svg="http://www.w3.org/2000/svg"
   xmlns="http://www.w3.org/2000/svg"
   xmlns:sodipodi="http://sodipodi.sourceforge.net/DTD/sodipodi-0.dtd"
   xmlns:inkscape="http://www.inkscape.org/namespaces/inkscape"
   width="125.7516mm"
   height="24.551592mm"
   viewBox="0 0 125.7516 24.551592"
   version="1.1"
   id="svg1504"
   inkscape:version="1.0.2 (e86c870879, 2021-01-15)"
   sodipodi:docname="kontext.svg">
  <defs
     id="defs1498" />
  <sodipodi:namedview
     id="base"
     pagecolor="#ffffff"
     bordercolor="#666666"
     borderopacity="1.0"
     inkscape:pageopacity="0.0"
     inkscape:pageshadow="2"
     inkscape:zoom="3.9723815"
     inkscape:cx="340.17342"
     inkscape:cy="37.945744"
     inkscape:document-units="mm"
     inkscape:current-layer="layer1"
     inkscape:document-rotation="0"
     showgrid="false"
     inkscape:window-width="1600"
     inkscape:window-height="900"
     inkscape:window-x="0"
     inkscape:window-y="0"
     inkscape:window-maximized="0">
    <inkscape:grid
       type="xygrid"
       id="grid2076"
       originx="-2.4837195"
       originy="-52.897287" />
  </sodipodi:namedview>
  <metadata
     id="metadata1501">
    <rdf:RDF>
      <cc:Work
         rdf:about="">
        <dc:format>image/svg+xml</dc:format>
        <dc:type
           rdf:resource="http://purl.org/dc/dcmitype/StillImage" />
        <dc:title />
      </cc:Work>
    </rdf:RDF>
  </metadata>
  <g
     inkscape:label="Ebene 1"
     inkscape:groupmode="layer"
     id="layer1"
     transform="translate(-2.4837196,-52.897287)">
    <path
       style="fill:#e5e5e5;fill-opacity:1;stroke:#000000;stroke-width:0;stroke-linecap:butt;stroke-linejoin:miter;stroke-miterlimit:4;stroke-dasharray:none;stroke-opacity:1"
       d="m 7.9291845,57.876832 c 5.1632985,-0.0063 46.5886415,0.02622 51.7711525,0 5.182509,-0.02622 5.12872,-0.05784 5.177115,4.828848 0.04836,4.886724 0.04711,4.811196 0,9.657671 -0.04711,4.846475 -0.01791,4.828095 -5.177115,4.828848 -5.159192,7.4e-4 -46.712506,0.03162 -51.7711525,0 -5.0586463,-0.03162 -5.1290343,0.02886 -5.1771152,-4.828848 -0.048085,-4.857742 0.073908,-4.82521 0,-9.657671 -0.073908,-4.832486 0.013823,-4.822374 5.1771152,-4.828848 z"
       id="path1295-27"
       sodipodi:nodetypes="zzzzzzzzz" />
    <path
       style="fill:#d486e7;fill-opacity:0.64;stroke:#000000;stroke-width:0.2;stroke-linecap:butt;stroke-linejoin:miter;stroke-miterlimit:4;stroke-dasharray:none;stroke-opacity:1"
       d="m 7.8211095,53.180486 c 4.0039715,-0.003 36.1280005,0.01 40.1468625,0 4.018872,-0.01 3.977151,-0.0205 4.014681,1.71371 0.03758,1.73426 0.03657,1.70746 0,3.42743 -0.03657,1.71999 -0.0139,1.71346 -4.014681,1.71372 -4.000786,2.8e-4 -36.224046,0.011 -40.1468625,0 -3.9228187,-0.011 -3.9774018,0.01 -4.0146873,-1.71372 -0.037285,-1.72396 0.057318,-1.71242 0,-3.42743 -0.057318,-1.71501 0.010672,-1.71142 4.0146873,-1.71371 z"
       id="path1295-27-3"
       sodipodi:nodetypes="zzzzzzzzz" />
    <path
       style="fill:#e5e5e5;fill-opacity:1;stroke:#000000;stroke-width:0;stroke-linecap:butt;stroke-linejoin:miter;stroke-miterlimit:4;stroke-dasharray:none;stroke-opacity:1"
       d="m 71.006105,57.84647 c 5.163298,-0.0063 46.588645,0.02622 51.771155,0 5.1825,-0.02622 5.12872,-0.05784 5.17711,4.828848 0.0484,4.886724 0.0471,4.811196 0,9.657671 -0.0471,4.846475 -0.0179,4.828095 -5.17711,4.828848 -5.1592,7.4e-4 -46.712509,0.03162 -51.771155,0 -5.058646,-0.03162 -5.129034,0.02886 -5.177115,-4.828848 -0.04809,-4.857742 0.07391,-4.825209 0,-9.657671 -0.07391,-4.832486 0.01382,-4.822374 5.177115,-4.828848 z"
       id="path1295-27-6"
       sodipodi:nodetypes="zzzzzzzzz" />
    <path
       style="fill:#d486e7;fill-opacity:0.64;stroke:#000000;stroke-width:0.2;stroke-linecap:butt;stroke-linejoin:miter;stroke-miterlimit:4;stroke-dasharray:none;stroke-opacity:1"
       d="m 70.89803,53.156286 c 4.00397,-0.003 36.128,0.01 40.14686,0 4.01887,-0.01 3.97715,-0.0205 4.01468,1.71371 0.0376,1.73426 0.0366,1.70746 0,3.42743 -0.0366,1.71999 -0.0139,1.71346 -4.01468,1.71372 -4.00079,2.8e-4 -36.224044,0.011 -40.14686,0 -3.922819,-0.011 -3.977402,0.01 -4.014687,-1.71372 -0.03728,-1.72396 0.05732,-1.71242 0,-3.42743 -0.05732,-1.71501 0.01067,-1.71142 4.014687,-1.71371 z"
       id="path1295-27-3-7"
       sodipodi:nodetypes="zzzzzzzzz" />
    <ellipse
       style="fill:#00e100;fill-opacity:1;stroke:#050e05;stroke-width:0.450181;stroke-miterlimit:4;stroke-dasharray:none;stroke-dashoffset:0;stroke-opacity:1"
       id="path833"
       cx="81.038925"
       cy="66.62294"
       rx="9.0680094"
       ry="5.2454586" />
    <ellipse
       style="fill:#00e100;fill-opacity:1;stroke:#050e05;stroke-width:0.450181;stroke-miterlimit:4;stroke-dasharray:none;stroke-dashoffset:0;stroke-opacity:1"
       id="path833-3"
       cx="113.40997"
       cy="66.43306"
       rx="9.0680094"
       ry="5.2454586" />
    <path
       style="fill:none;stroke:#000000;stroke-width:0.829026;stroke-linecap:butt;stroke-linejoin:miter;stroke-miterlimit:4;stroke-dasharray:none;stroke-opacity:1"
       d="m 93.609295,65.159396 6.831835,0.0917"
       id="path1267" />
    <path
       style="fill:none;stroke:#000000;stroke-width:0.829026;stroke-linecap:butt;stroke-linejoin:miter;stroke-miterlimit:4;stroke-dasharray:none;stroke-opacity:1"
       d="m 93.555167,68.083736 6.831853,0.0917"
       id="path1267-6" />
    <ellipse
       style="fill:#00e100;fill-opacity:1;stroke:#050e05;stroke-width:0.450181;stroke-miterlimit:4;stroke-dasharray:none;stroke-dashoffset:0;stroke-opacity:1"
       id="path833-9"
       cx="17.784948"
       cy="66.453873"
       rx="9.0680094"
       ry="5.2454586" />
    <text
       xml:space="preserve"
       style="font-size:2.09777px;line-height:1.25;font-family:sans-serif;text-align:center;text-anchor:middle;stroke-width:0.0571551"
       x="17.808079"
       y="64.572273"
       id="text837-3"><tspan
         sodipodi:role="line"
         x="17.808079"
         y="64.572273"
         style="font-size:2.09777px;text-align:center;text-anchor:middle;stroke-width:0.0571551"
         id="tspan1431">Heute ist</tspan><tspan
         sodipodi:role="line"
         x="17.808079"
         y="67.194489"
         style="font-size:2.09777px;text-align:center;text-anchor:middle;stroke-width:0.0571551"
         id="tspan3851">schönes</tspan><tspan
         sodipodi:role="line"
         x="17.808079"
         y="69.816696"
         style="font-size:2.09777px;text-align:center;text-anchor:middle;stroke-width:0.0571551"
         id="tspan3853">Wetter</tspan></text>
    <ellipse
       style="fill:#00e100;fill-opacity:1;stroke:#050e05;stroke-width:0.450181;stroke-miterlimit:4;stroke-dasharray:none;stroke-dashoffset:0;stroke-opacity:1"
       id="path833-3-6"
       cx="48.638199"
       cy="66.573349"
       rx="9.0680094"
       ry="5.2454586" />
    <path
       style="fill:none;stroke:#000000;stroke-width:0.829026;stroke-linecap:butt;stroke-linejoin:miter;stroke-miterlimit:4;stroke-dasharray:none;stroke-opacity:1"
       d="m 29.528787,65.245086 6.831837,0.0917"
       id="path1267-7" />
    <path
       style="fill:none;stroke:#000000;stroke-width:0.829026;stroke-linecap:butt;stroke-linejoin:miter;stroke-miterlimit:4;stroke-dasharray:none;stroke-opacity:1"
       d="m 29.474663,68.169436 6.83184,0.0917"
       id="path1267-6-9" />
    <text
       xml:space="preserve"
       style="font-size:3.03526px;line-height:1.25;font-family:sans-serif;fill:#0600d9;fill-opacity:1;stroke-width:0.0632343"
       x="5.2772551"
       y="55.201241"
       id="text1291-2"
       transform="scale(0.95831282,1.0435006)"><tspan
         sodipodi:role="line"
         id="tspan1289-0"
         x="5.2772551"
         y="55.201241"
         style="font-size:3.03526px;fill:#0600d9;fill-opacity:1;stroke-width:0.0632343">Beispiel: Inhaltlich identisch</tspan></text>
    <path
       style="fill:none;stroke:#c10000;stroke-width:1.17994;stroke-linecap:butt;stroke-linejoin:miter;stroke-miterlimit:4;stroke-dasharray:none;stroke-opacity:1"
       d="m 92.820552,61.358046 8.339498,9.92706"
       id="path1480" />
    <path
       style="fill:none;stroke:#c10000;stroke-width:1.17083;stroke-linecap:butt;stroke-linejoin:miter;stroke-miterlimit:4;stroke-dasharray:none;stroke-opacity:1"
       d="m 101.46889,61.509076 -8.206101,9.93352"
       id="path1480-3" />
    <text
       xml:space="preserve"
       style="font-size:3.03526px;line-height:1.25;font-family:sans-serif;fill:#0600d9;fill-opacity:1;stroke-width:0.0632343"
       x="70.935844"
       y="55.225616"
       id="text1291-2-6"
       transform="scale(0.95831282,1.0435006)"><tspan
         sodipodi:role="line"
         id="tspan1289-0-7"
         x="70.935844"
         y="55.225616"
         style="font-size:3.03526px;fill:#0600d9;fill-opacity:1;stroke-width:0.0632343">Beispiel: Inhaltlich verschieden</tspan></text>
    <text
       xml:space="preserve"
       style="font-size:2.6458px;line-height:1.25;font-family:sans-serif;text-align:center;text-anchor:middle;fill:#502d16;fill-opacity:1;stroke-width:0.0551205;"
       x="18.733976"
       y="71.802452"
       id="text1291-2-7"
       transform="scale(0.95831282,1.0435006)"><tspan
         sodipodi:role="line"
         x="18.733976"
         y="71.802452"
         style="font-size:2.6458px;text-align:center;text-anchor:middle;fill:#502d16;fill-opacity:1;stroke-width:0.0551205;"
         id="tspan3816">Datum: 11.07.22</tspan></text>
    <text
       xml:space="preserve"
       style="font-size:2.09777px;line-height:1.25;font-family:sans-serif;text-align:center;text-anchor:middle;stroke-width:0.0571551"
       x="48.943977"
       y="65.022087"
       id="text837-3-0"><tspan
         sodipodi:role="line"
         x="48.943977"
         y="65.022087"
         style="font-size:2.09777px;text-align:center;text-anchor:middle;stroke-width:0.0571551"
         id="tspan1431-6">Gestern war</tspan><tspan
         sodipodi:role="line"
         x="48.943977"
         y="67.644302"
         style="font-size:2.09777px;text-align:center;text-anchor:middle;stroke-width:0.0571551"
         id="tspan3851-2">schönes</tspan><tspan
         sodipodi:role="line"
         x="48.943977"
         y="70.26651"
         style="font-size:2.09777px;text-align:center;text-anchor:middle;stroke-width:0.0571551"
         id="tspan3853-6">Wetter</tspan></text>
    <path
       id="path1295-27-8"
       style="fill:none;fill-opacity:1;stroke:#000000;stroke-width:0.5;stroke-linecap:butt;stroke-linejoin:miter;stroke-miterlimit:4;stroke-dasharray:none;stroke-opacity:1"
       d="m 112.3644,53.148377 c -0.38355,-0.0021 -0.82211,-7.33e-4 -1.32447,5.17e-4 -4.01886,0.01 -36.142934,-0.003 -40.146903,0 -4.004018,0.0023 -4.072064,-0.0014 -4.014742,1.713591 0.05567,1.665563 -0.03008,1.729498 -0.001,3.309359 -1.083508,0.476223 -1.096846,1.639924 -1.053166,4.49585 0.07391,4.832461 -0.04809,4.800065 0,9.657807 0.04808,4.857708 0.118301,4.797026 5.176946,4.828646 5.058646,0.03162 46.611795,7.41e-4 51.771005,0 5.1592,-7.54e-4 5.13035,0.01783 5.17745,-4.828646 0.0471,-4.846476 0.0484,-4.771085 0,-9.657807 -0.0484,-4.88669 0.005,-4.854866 -5.17745,-4.828646 -1.04609,0.0053 -4.30698,0.007 -7.71012,0.0083 0.0238,-1.154613 0.0255,-1.47516 -0.007,-2.984831 -0.0328,-1.517434 -0.005,-1.699106 -2.69027,-1.714108 z m -63.076774,0.02429 c -0.38355,-0.0021 -0.822624,-7.33e-4 -1.324983,5.17e-4 -4.018862,0.01 -36.142415,-0.003 -40.1463865,0 -4.0040153,0.0023 -4.0720601,-0.0014 -4.0147421,1.713591 0.055745,1.667948 -0.030464,1.728488 -0.00103,3.315043 -1.0835656,0.47621 -1.0973618,1.64039 -1.0536825,4.496366 0.073908,4.832461 -0.048085,4.800065 0,9.657807 0.048081,4.857711 0.1188154,4.797028 5.1774617,4.828646 5.0586464,0.03162 46.6118074,7.41e-4 51.7709994,0 5.159206,-7.51e-4 5.129834,0.01783 5.176946,-4.828646 0.04711,-4.846473 0.04836,-4.771083 0,-9.657807 -0.04839,-4.886688 0.0056,-4.854866 -5.176946,-4.828646 -1.046165,0.0053 -4.307154,0.0064 -7.710641,0.0078 0.02393,-1.160719 0.02554,-1.477891 -0.0072,-2.990515 -0.03284,-1.517434 -0.0049,-1.699106 -2.68976,-1.714108 z" />
    <text
       xml:space="preserve"
       style="font-size:2.6458px;line-height:1.25;font-family:sans-serif;text-align:center;text-anchor:middle;fill:#502d16;fill-opacity:1;stroke-width:0.0551205"
       x="51.258877"
       y="71.686295"
       id="text1291-2-7-6"
       transform="scale(0.95831282,1.0435006)"><tspan
         sodipodi:role="line"
         x="51.258877"
         y="71.686295"
         style="font-size:2.6458px;text-align:center;text-anchor:middle;fill:#502d16;fill-opacity:1;stroke-width:0.0551205"
         id="tspan3816-1">Datum: 12.07.22</tspan></text>
    <text
       xml:space="preserve"
       style="font-size:4.5861px;line-height:1.25;font-family:sans-serif;stroke-width:0.264583"
       x="59.822441"
       y="97.004356"
       id="text4047"><tspan
         sodipodi:role="line"
         id="tspan4045"
         x="59.822441"
         y="97.004356"
         style="stroke-width:0.264583" /></text>
    <text
       xml:space="preserve"
       style="font-size:2.6458px;line-height:1.25;font-family:sans-serif;text-align:center;text-anchor:middle;fill:#502d16;fill-opacity:1;stroke-width:0.0551205"
       x="85.048004"
       y="71.742149"
       id="text1291-2-7-2"
       transform="scale(0.95831282,1.0435006)"><tspan
         sodipodi:role="line"
         x="85.048004"
         y="71.742149"
         style="font-size:2.6458px;text-align:center;text-anchor:middle;fill:#502d16;fill-opacity:1;stroke-width:0.0551205"
         id="tspan3816-9">Verfasser: Alice</tspan></text>
    <text
       xml:space="preserve"
       style="font-size:2.6458px;line-height:1.25;font-family:sans-serif;text-align:center;text-anchor:middle;fill:#502d16;fill-opacity:1;stroke-width:0.0551205"
       x="118.52293"
       y="71.860718"
       id="text1291-2-7-6-3"
       transform="scale(0.95831282,1.0435006)"><tspan
         sodipodi:role="line"
         x="118.52293"
         y="71.860718"
         style="font-size:2.6458px;text-align:center;text-anchor:middle;fill:#502d16;fill-opacity:1;stroke-width:0.0551205"
         id="tspan3816-1-1">Verfasser: Bob</tspan></text>
    <text
       xml:space="preserve"
       style="font-size:2.09777px;line-height:1.25;font-family:sans-serif;text-align:center;text-anchor:middle;stroke-width:0.0571551"
       x="81.26284"
       y="64.708214"
       id="text837-3-9"><tspan
         sodipodi:role="line"
         x="81.26284"
         y="64.708214"
         style="font-size:2.09777px;text-align:center;text-anchor:middle;stroke-width:0.0571551"
         id="tspan3851-7">Ich habe</tspan><tspan
         sodipodi:role="line"
         x="81.26284"
         y="67.330429"
         style="font-size:2.09777px;text-align:center;text-anchor:middle;stroke-width:0.0571551"
         id="tspan3853-8">eine Nachricht</tspan><tspan
         sodipodi:role="line"
         x="81.26284"
         y="69.952644"
         style="font-size:2.09777px;text-align:center;text-anchor:middle;stroke-width:0.0571551"
         id="tspan4119">erhalten</tspan></text>
    <text
       xml:space="preserve"
       style="font-size:2.09777px;line-height:1.25;font-family:sans-serif;text-align:center;text-anchor:middle;stroke-width:0.0571551"
       x="113.67705"
       y="64.391434"
       id="text837-3-9-4"><tspan
         sodipodi:role="line"
         x="113.67705"
         y="64.391434"
         style="font-size:2.09777px;text-align:center;text-anchor:middle;stroke-width:0.0571551"
         id="tspan3851-7-5">Ich habe</tspan><tspan
         sodipodi:role="line"
         x="113.67705"
         y="67.013649"
         style="font-size:2.09777px;text-align:center;text-anchor:middle;stroke-width:0.0571551"
         id="tspan3853-8-0">eine Nachricht</tspan><tspan
         sodipodi:role="line"
         x="113.67705"
         y="69.635857"
         style="font-size:2.09777px;text-align:center;text-anchor:middle;stroke-width:0.0571551"
         id="tspan4119-3">erhalten</tspan></text>
  </g>
</svg>
