<?xml version="1.0" encoding="UTF-8" standalone="no"?>
<svg
   xmlns:dc="http://purl.org/dc/elements/1.1/"
   xmlns:cc="http://creativecommons.org/ns#"
   xmlns:rdf="http://www.w3.org/1999/02/22-rdf-syntax-ns#"
   xmlns:svg="http://www.w3.org/2000/svg"
   xmlns="http://www.w3.org/2000/svg"
   xmlns:sodipodi="http://sodipodi.sourceforge.net/DTD/sodipodi-0.dtd"
   xmlns:inkscape="http://www.inkscape.org/namespaces/inkscape"
   width="125.98866mm"
   height="26.945238mm"
   viewBox="0 0 125.98866 26.945238"
   version="1.1"
   id="svg894"
   inkscape:version="1.0.2 (e86c870879, 2021-01-15)"
   sodipodi:docname="unklar.svg">
  <defs
     id="defs888">
    <marker
       style="overflow:visible"
       id="Arrow1Send"
       refX="0"
       refY="0"
       orient="auto"
       inkscape:stockid="Arrow1Send"
       inkscape:isstock="true">
      <path
         transform="matrix(-0.2,0,0,-0.2,-1.2,0)"
         style="fill:#c0c92a;fill-opacity:1;fill-rule:evenodd;stroke:#c0c92a;stroke-width:1pt;stroke-opacity:1"
         d="M 0,0 5,-5 -12.5,0 5,5 Z"
         id="path4237" />
    </marker>
    <marker
       style="overflow:visible"
       id="Arrow1Mend"
       refX="0"
       refY="0"
       orient="auto"
       inkscape:stockid="Arrow1Mend"
       inkscape:isstock="true">
      <path
         transform="matrix(-0.4,0,0,-0.4,-4,0)"
         style="fill:#000000;fill-opacity:1;fill-rule:evenodd;stroke:#000000;stroke-width:1pt;stroke-opacity:1"
         d="M 0,0 5,-5 -12.5,0 5,5 Z"
         id="path4231" />
    </marker>
    <marker
       style="overflow:visible"
       id="Arrow1Send-9"
       refX="0"
       refY="0"
       orient="auto"
       inkscape:stockid="Arrow1Send"
       inkscape:isstock="true">
      <path
         transform="matrix(-0.2,0,0,-0.2,-1.2,0)"
         style="fill:#0000e1;fill-opacity:1;fill-rule:evenodd;stroke:#0000e1;stroke-width:1pt;stroke-opacity:1"
         d="M 0,0 5,-5 -12.5,0 5,5 Z"
         id="path4237-3" />
    </marker>
  </defs>
  <sodipodi:namedview
     id="base"
     pagecolor="#ffffff"
     bordercolor="#666666"
     borderopacity="1.0"
     inkscape:pageopacity="0.0"
     inkscape:pageshadow="2"
     inkscape:zoom="1.4"
     inkscape:cx="324.6728"
     inkscape:cy="142.71153"
     inkscape:document-units="mm"
     inkscape:current-layer="layer1"
     inkscape:document-rotation="0"
     showgrid="false"
     inkscape:snap-global="false"
     inkscape:window-width="1596"
     inkscape:window-height="861"
     inkscape:window-x="0"
     inkscape:window-y="18"
     inkscape:window-maximized="0" />
  <metadata
     id="metadata891">
    <rdf:RDF>
      <cc:Work
         rdf:about="">
        <dc:format>image/svg+xml</dc:format>
        <dc:type
           rdf:resource="http://purl.org/dc/dcmitype/StillImage" />
        <dc:title></dc:title>
      </cc:Work>
    </rdf:RDF>
  </metadata>
  <g
     inkscape:label="Ebene 1"
     inkscape:groupmode="layer"
     id="layer1"
     transform="translate(-48.498121,-117.76293)">
    <path
       style="fill:#e5e5e5;fill-opacity:1;stroke:#000000;stroke-width:0;stroke-linecap:butt;stroke-linejoin:miter;stroke-miterlimit:4;stroke-dasharray:none;stroke-opacity:1"
       d="m 48.926075,126.44344 c 0,-3.23931 0.512239,-3.40895 9.390504,-3.34773 8.878264,0.0612 100.215691,0.14684 107.930231,0.13999 7.71457,-0.008 7.70841,0.13522 7.95233,2.8802 0.2439,2.74497 -0.19084,12.98003 0.0646,14.99788 0.42665,3.37087 0.23157,3.43127 -7.38272,3.47588 -6.0842,0.0357 -103.332625,-0.0155 -110.913457,-0.09 -6.493904,-0.0639 -6.910281,-0.034 -6.99201,-3.32168 -0.06092,-2.45051 -0.04942,-14.73463 -0.04942,-14.73463 z"
       id="path1295"
       sodipodi:nodetypes="csssssssc" />
    <path
       style="fill:#d486e7;fill-opacity:0.635544;stroke:#020202;stroke-width:0.110442;stroke-linecap:butt;stroke-linejoin:miter;stroke-miterlimit:4;stroke-dasharray:none;stroke-opacity:1"
       d="m 55.953008,119.43471 c 0,-1.21526 0.231993,-1.27891 4.252948,-1.25594 4.020956,0.0229 45.387574,0.0551 48.881494,0.0525 3.49391,-0.002 3.49113,0.0507 3.60159,1.08054 0.11047,1.02981 -0.0864,4.86962 0.0293,5.62665 0.19323,1.26462 0.10487,1.28728 -3.34363,1.30402 -2.75552,0.0133 -46.799229,-0.006 -50.23258,-0.0337 -2.941082,-0.024 -3.129659,-0.0127 -3.166673,-1.24617 -0.02759,-0.91934 -0.02238,-5.52788 -0.02238,-5.52788 z"
       id="path1295-2"
       sodipodi:nodetypes="csssssssc" />
    <ellipse
       style="fill:#00e100;fill-opacity:1;stroke:#050e05;stroke-width:0.630993;stroke-miterlimit:4;stroke-dasharray:none;stroke-dashoffset:0;stroke-opacity:1"
       id="path833"
       cx="66.220917"
       cy="134.99521"
       rx="12.017317"
       ry="7.7760363" />
    <text
       xml:space="preserve"
       style="font-size:2.20316px;line-height:1.25;font-family:sans-serif;text-align:center;text-anchor:middle;stroke-width:0.0600269"
       x="66.48645"
       y="131.68878"
       id="text837"><tspan
         sodipodi:role="line"
         x="66.48645"
         y="131.68878"
         style="font-size:2.20316px;text-align:center;text-anchor:middle;stroke-width:0.0600269"
         id="tspan883">Als ich mit dem </tspan><tspan
         sodipodi:role="line"
         x="66.48645"
         y="134.44273"
         style="font-size:2.20316px;text-align:center;text-anchor:middle;stroke-width:0.0600269"
         id="tspan4106">Hund im Park war, </tspan><tspan
         sodipodi:role="line"
         x="66.48645"
         y="137.19669"
         style="font-size:2.20316px;text-align:center;text-anchor:middle;stroke-width:0.0600269"
         id="tspan4108">ist er ziemlich </tspan><tspan
         sodipodi:role="line"
         x="66.48645"
         y="139.95064"
         style="font-size:2.20316px;text-align:center;text-anchor:middle;stroke-width:0.0600269"
         id="tspan4110">nass gewesen</tspan></text>
    <text
       xml:space="preserve"
       style="font-size:3.43895px;line-height:1.25;font-family:sans-serif;fill:#0600d9;fill-opacity:1;stroke-width:0.0716447"
       x="60.721394"
       y="123.10428"
       id="text1291"><tspan
         sodipodi:role="line"
         id="tspan1289"
         x="60.721394"
         y="123.10428"
         style="font-size:3.43895px;fill:#0600d9;fill-opacity:1;stroke-width:0.0716447">Beispiel: Inhaltlich unklar</tspan></text>
    <ellipse
       style="fill:#00e1fa;fill-opacity:1;stroke:#050e05;stroke-width:0.588949;stroke-miterlimit:4;stroke-dasharray:none;stroke-dashoffset:0;stroke-opacity:1"
       id="path833-36"
       cx="111.99446"
       cy="135.08859"
       rx="11.216587"
       ry="7.2579088" />
    <text
       xml:space="preserve"
       style="font-size:2.43955px;line-height:1.25;font-family:sans-serif;text-align:center;text-anchor:middle;stroke-width:0.0664677"
       x="112.50908"
       y="133.3485"
       id="text837-7"><tspan
         sodipodi:role="line"
         x="112.50908"
         y="133.3485"
         style="font-size:2.43955px;text-align:center;text-anchor:middle;stroke-width:0.0664677"
         id="tspan4110-6">Wer war nass? </tspan><tspan
         sodipodi:role="line"
         x="112.50908"
         y="136.39793"
         style="font-size:2.43955px;text-align:center;text-anchor:middle;stroke-width:0.0664677"
         id="tspan4161">Der Hund oder </tspan><tspan
         sodipodi:role="line"
         x="112.50908"
         y="139.44737"
         style="font-size:2.43955px;text-align:center;text-anchor:middle;stroke-width:0.0664677"
         id="tspan4163">der Park?</tspan></text>
    <ellipse
       style="fill:#00e100;fill-opacity:1;stroke:#050e05;stroke-width:0.630993;stroke-miterlimit:4;stroke-dasharray:none;stroke-dashoffset:0;stroke-opacity:1"
       id="path833-2"
       cx="155.68175"
       cy="135.04875"
       rx="12.017317"
       ry="7.7760363" />
    <text
       xml:space="preserve"
       style="font-size:2.20316px;line-height:1.25;font-family:sans-serif;text-align:center;text-anchor:middle;stroke-width:0.0600269"
       x="155.94727"
       y="131.74232"
       id="text837-9"><tspan
         sodipodi:role="line"
         x="155.94727"
         y="131.74232"
         style="font-size:2.20316px;text-align:center;text-anchor:middle;stroke-width:0.0600269"
         id="tspan4110-0">Der Park war </tspan><tspan
         sodipodi:role="line"
         x="155.94727"
         y="134.49628"
         style="font-size:2.20316px;text-align:center;text-anchor:middle;stroke-width:0.0600269"
         id="tspan4214">nass, weil es heute</tspan><tspan
         sodipodi:role="line"
         x="155.94727"
         y="137.25023"
         style="font-size:2.20316px;text-align:center;text-anchor:middle;stroke-width:0.0600269"
         id="tspan4216">Morgen geregnet</tspan><tspan
         sodipodi:role="line"
         x="155.94727"
         y="140.00418"
         style="font-size:2.20316px;text-align:center;text-anchor:middle;stroke-width:0.0600269"
         id="tspan4218">hat.</tspan></text>
    <path
       style="fill:none;stroke:#c0c92a;stroke-width:1.03781;stroke-linecap:butt;stroke-linejoin:miter;stroke-miterlimit:4;stroke-dasharray:none;stroke-opacity:1;marker-end:url(#Arrow1Send)"
       d="M 93.519116,132.21017 84.565833,132.0488"
       id="path4220" />
    <text
       xml:space="preserve"
       style="font-size:2.19966px;line-height:1.25;font-family:sans-serif;stroke-width:0.126903"
       x="82.262726"
       y="136.85017"
       id="text4544"><tspan
         sodipodi:role="line"
         x="82.262726"
         y="136.85017"
         style="stroke-width:0.126903"
         id="tspan4548">Frage zur </tspan><tspan
         sodipodi:role="line"
         x="82.262726"
         y="139.59975"
         style="stroke-width:0.126903"
         id="tspan4554">Formulierung</tspan></text>
    <path
       style="fill:none;stroke:#0000e1;stroke-width:1.03781;stroke-linecap:butt;stroke-linejoin:miter;stroke-miterlimit:4;stroke-dasharray:none;stroke-opacity:1;marker-end:url(#Arrow1Send-9)"
       d="m 138.0976,131.96446 -8.95328,-0.16137"
       id="path4220-6" />
    <text
       xml:space="preserve"
       style="font-size:2.19966px;line-height:1.25;font-family:sans-serif;stroke-width:0.126903"
       x="129.26511"
       y="136.35641"
       id="text4544-0"><tspan
         sodipodi:role="line"
         x="129.26511"
         y="136.35641"
         style="stroke-width:0.126903"
         id="tspan4554-2">Antwort</tspan><tspan
         sodipodi:role="line"
         x="129.26511"
         y="139.10599"
         style="stroke-width:0.126903"
         id="tspan4666">auf</tspan></text>
    <path
       id="path1295-8"
       style="fill:none;fill-opacity:1;stroke:#000000;stroke-width:0.518906;stroke-linecap:butt;stroke-linejoin:miter;stroke-miterlimit:4;stroke-dasharray:none;stroke-opacity:1"
       d="m 58.701013,118.02348 c -2.738131,0.0134 -2.915889,0.19482 -2.915889,1.25818 0,0 -0.0018,2.01834 0.0049,3.65598 -6.558092,0.0119 -7.03203,0.43717 -7.03203,3.35299 h 5.37e-4 c 0,0 -0.01158,12.28393 0.04933,14.73445 0.08172,3.28773 0.497902,3.25803 6.991805,3.32187 7.580832,0.0745 104.829524,0.12578 110.913734,0.0901 7.61428,-0.0446 7.80888,-0.10545 7.38223,-3.47634 -0.25549,-2.01785 0.17954,-12.25279 -0.0644,-14.99776 -0.24391,-2.74497 -0.23776,-2.88721 -7.95231,-2.87995 -3.85888,0.003 -28.63863,-0.0163 -53.55754,-0.0445 0.0181,-1.42141 0.0708,-3.21501 -5.4e-4,-3.87964 -0.11046,-1.0298 -0.10738,-1.08273 -3.60129,-1.08065 -3.49391,0.002 -44.860541,-0.0295 -48.881495,-0.0525 -0.502621,-0.003 -0.945848,-0.004 -1.337008,-0.002 z" />
  </g>
</svg>
