<?xml version="1.0" encoding="UTF-8" standalone="no"?>
<svg
   xmlns:dc="http://purl.org/dc/elements/1.1/"
   xmlns:cc="http://creativecommons.org/ns#"
   xmlns:rdf="http://www.w3.org/1999/02/22-rdf-syntax-ns#"
   xmlns:svg="http://www.w3.org/2000/svg"
   xmlns="http://www.w3.org/2000/svg"
   xmlns:sodipodi="http://sodipodi.sourceforge.net/DTD/sodipodi-0.dtd"
   xmlns:inkscape="http://www.inkscape.org/namespaces/inkscape"
   width="125.75138mm"
   height="20.624418mm"
   viewBox="0 0 125.75137 20.624419"
   version="1.1"
   id="svg8"
   inkscape:version="1.0.2 (e86c870879, 2021-01-15)"
   sodipodi:docname="vergleich.svg">
  <defs
     id="defs2">
    <marker
       style="overflow:visible"
       id="Arrow1Sstart"
       refX="0"
       refY="0"
       orient="auto"
       inkscape:stockid="Arrow1Sstart"
       inkscape:isstock="true">
      <path
         transform="matrix(0.2,0,0,0.2,1.2,0)"
         style="fill:#000000;fill-opacity:1;fill-rule:evenodd;stroke:#000000;stroke-width:1pt;stroke-opacity:1"
         d="M 0,0 5,-5 -12.5,0 5,5 Z"
         id="path901" />
    </marker>
    <marker
       style="overflow:visible"
       id="Arrow1Send"
       refX="0"
       refY="0"
       orient="auto"
       inkscape:stockid="Arrow1Send"
       inkscape:isstock="true">
      <path
         transform="matrix(-0.2,0,0,-0.2,-1.2,0)"
         style="fill:#000000;fill-opacity:1;fill-rule:evenodd;stroke:#000000;stroke-width:1pt;stroke-opacity:1"
         d="M 0,0 5,-5 -12.5,0 5,5 Z"
         id="path904" />
    </marker>
  </defs>
  <sodipodi:namedview
     id="base"
     pagecolor="#ffffff"
     bordercolor="#666666"
     borderopacity="1.0"
     inkscape:pageopacity="0.0"
     inkscape:pageshadow="2"
     inkscape:zoom="2"
     inkscape:cx="389.06442"
     inkscape:cy="96.238501"
     inkscape:document-units="mm"
     inkscape:current-layer="layer1"
     inkscape:document-rotation="0"
     showgrid="false"
     inkscape:snap-global="false"
     inkscape:window-width="796"
     inkscape:window-height="861"
     inkscape:window-x="800"
     inkscape:window-y="18"
     inkscape:window-maximized="0" />
  <metadata
     id="metadata5">
    <rdf:RDF>
      <cc:Work
         rdf:about="">
        <dc:format>image/svg+xml</dc:format>
        <dc:type
           rdf:resource="http://purl.org/dc/dcmitype/StillImage" />
        <dc:title />
      </cc:Work>
    </rdf:RDF>
  </metadata>
  <g
     inkscape:label="Ebene 1"
     inkscape:groupmode="layer"
     id="layer1"
     transform="translate(-7.2190439,-116.23288)">
    <path
       style="fill:#e5e5e5;fill-opacity:1;stroke:#000000;stroke-width:0;stroke-linecap:butt;stroke-linejoin:miter;stroke-miterlimit:4;stroke-dasharray:none;stroke-opacity:1"
       d="m 12.634038,121.29294 c 5.163298,-0.005 46.588642,0.0209 51.771152,0 5.18251,-0.0209 5.12872,-0.0461 5.177115,3.84885 0.04836,3.89498 0.04711,3.83478 0,7.69768 -0.04711,3.8629 -0.01791,3.84825 -5.177115,3.84885 -5.159192,5.9e-4 -46.712506,0.0252 -51.771152,0 -5.0586463,-0.0252 -5.1290343,0.023 -5.1771152,-3.84885 -0.048085,-3.87188 0.073908,-3.84595 0,-7.69768 -0.073908,-3.85175 0.013823,-3.84369 5.1771152,-3.84885 z"
       id="path1295-27"
       sodipodi:nodetypes="zzzzzzzzz" />
    <path
       style="fill:#d486e7;fill-opacity:0.64;stroke:#000000;stroke-width:0.2;stroke-linecap:butt;stroke-linejoin:miter;stroke-miterlimit:4;stroke-dasharray:none;stroke-opacity:1"
       d="m 12.525963,116.60355 c 4.003971,-0.003 36.128,0.01 40.146862,0 4.018872,-0.01 3.977151,-0.0205 4.014681,1.71371 0.03758,1.73426 0.03657,1.70746 0,3.42743 -0.03657,1.71999 -0.0139,1.71346 -4.014681,1.71372 -4.000786,2.8e-4 -36.224046,0.011 -40.146862,0 -3.9228187,-0.011 -3.9774018,0.01 -4.0146873,-1.71372 -0.037285,-1.72396 0.057318,-1.71242 0,-3.42743 -0.057318,-1.71501 0.010672,-1.71142 4.0146873,-1.71371 z"
       id="path1295-27-3"
       sodipodi:nodetypes="zzzzzzzzz" />
    <path
       style="fill:#e5e5e5;fill-opacity:1;stroke:#000000;stroke-width:0;stroke-linecap:butt;stroke-linejoin:miter;stroke-miterlimit:4;stroke-dasharray:none;stroke-opacity:1"
       d="m 75.710958,121.26874 c 5.163298,-0.005 46.588642,0.0209 51.771152,0 5.1825,-0.0209 5.12872,-0.0461 5.17711,3.84885 0.0484,3.89498 0.0471,3.83478 0,7.69768 -0.0471,3.8629 -0.0179,3.84825 -5.17711,3.84885 -5.1592,5.9e-4 -46.712506,0.0252 -51.771152,0 -5.058646,-0.0252 -5.129034,0.023 -5.177115,-3.84885 -0.04809,-3.87188 0.07391,-3.84595 0,-7.69768 -0.07391,-3.85175 0.01382,-3.84369 5.177115,-3.84885 z"
       id="path1295-27-6"
       sodipodi:nodetypes="zzzzzzzzz" />
    <path
       style="fill:#d486e7;fill-opacity:0.64;stroke:#000000;stroke-width:0.2;stroke-linecap:butt;stroke-linejoin:miter;stroke-miterlimit:4;stroke-dasharray:none;stroke-opacity:1"
       d="m 75.602883,116.57935 c 4.003971,-0.003 36.127997,0.01 40.146857,0 4.01887,-0.01 3.97715,-0.0205 4.01468,1.71371 0.0376,1.73426 0.0366,1.70746 0,3.42743 -0.0366,1.71999 -0.0139,1.71346 -4.01468,1.71372 -4.00079,2.8e-4 -36.224041,0.011 -40.146857,0 -3.922819,-0.011 -3.977402,0.01 -4.014687,-1.71372 -0.03728,-1.72396 0.05732,-1.71242 0,-3.42743 -0.05732,-1.71501 0.01067,-1.71142 4.014687,-1.71371 z"
       id="path1295-27-3-7"
       sodipodi:nodetypes="zzzzzzzzz" />
    <ellipse
       style="fill:#00e100;fill-opacity:1;stroke:#050e05;stroke-width:0.450181;stroke-miterlimit:4;stroke-dasharray:none;stroke-dashoffset:0;stroke-opacity:1"
       id="path833"
       cx="85.743782"
       cy="130.04601"
       rx="9.0680094"
       ry="5.2454586" />
    <text
       xml:space="preserve"
       style="font-size:2.39476px;line-height:1.25;font-family:sans-serif;text-align:center;text-anchor:middle;stroke-width:0.0652476"
       x="85.932266"
       y="129.04234"
       id="text837"><tspan
         sodipodi:role="line"
         id="tspan835"
         x="85.932266"
         y="129.04234"
         style="font-size:2.39476px;text-align:center;text-anchor:middle;stroke-width:0.0652476">Im Winter </tspan><tspan
         sodipodi:role="line"
         x="85.932266"
         y="132.0358"
         style="font-size:2.39476px;text-align:center;text-anchor:middle;stroke-width:0.0652476"
         id="tspan883">ist es kalt</tspan></text>
    <ellipse
       style="fill:#00e100;fill-opacity:1;stroke:#050e05;stroke-width:0.450181;stroke-miterlimit:4;stroke-dasharray:none;stroke-dashoffset:0;stroke-opacity:1"
       id="path833-3"
       cx="118.11482"
       cy="129.85612"
       rx="9.0680094"
       ry="5.2454586" />
    <text
       xml:space="preserve"
       style="font-size:2.46886px;line-height:1.25;font-family:sans-serif;text-align:center;text-anchor:middle;stroke-width:0.0771517"
       x="118.0842"
       y="127.59088"
       id="text837-6"><tspan
         x="118.0842"
         y="127.59088"
         style="font-size:2.46886px;text-align:center;text-anchor:middle;stroke-width:0.0771517"
         id="tspan877"
         sodipodi:role="line">Einige</tspan><tspan
         x="118.0842"
         y="130.67696"
         style="font-size:2.46886px;text-align:center;text-anchor:middle;stroke-width:0.0771517"
         id="tspan881"
         sodipodi:role="line">Winter</tspan><tspan
         x="118.0842"
         y="133.76303"
         style="font-size:2.46886px;text-align:center;text-anchor:middle;stroke-width:0.0771517"
         id="tspan875"
         sodipodi:role="line">sind kalt</tspan></text>
    <path
       style="fill:none;stroke:#000000;stroke-width:0.829026;stroke-linecap:butt;stroke-linejoin:miter;stroke-miterlimit:4;stroke-dasharray:none;stroke-opacity:1"
       d="m 98.314148,128.58246 6.831832,0.0917"
       id="path1267" />
    <path
       style="fill:none;stroke:#000000;stroke-width:0.829026;stroke-linecap:butt;stroke-linejoin:miter;stroke-miterlimit:4;stroke-dasharray:none;stroke-opacity:1"
       d="m 98.260021,131.5068 6.831849,0.0917"
       id="path1267-6" />
    <ellipse
       style="fill:#00e100;fill-opacity:1;stroke:#050e05;stroke-width:0.450181;stroke-miterlimit:4;stroke-dasharray:none;stroke-dashoffset:0;stroke-opacity:1"
       id="path833-9"
       cx="22.489801"
       cy="129.87694"
       rx="9.0680094"
       ry="5.2454586" />
    <text
       xml:space="preserve"
       style="font-size:2.09777px;line-height:1.25;font-family:sans-serif;text-align:center;text-anchor:middle;stroke-width:0.0571551"
       x="22.778385"
       y="127.97276"
       id="text837-3"><tspan
         sodipodi:role="line"
         x="22.778385"
         y="127.97276"
         style="font-size:2.09777px;text-align:center;text-anchor:middle;stroke-width:0.0571551"
         id="tspan1425">Es ist schön,</tspan><tspan
         sodipodi:role="line"
         x="22.778385"
         y="130.59497"
         style="font-size:2.09777px;text-align:center;text-anchor:middle;stroke-width:0.0571551"
         id="tspan1429">wenn es</tspan><tspan
         sodipodi:role="line"
         x="22.778385"
         y="133.21719"
         style="font-size:2.09777px;text-align:center;text-anchor:middle;stroke-width:0.0571551"
         id="tspan1431">Sommer ist</tspan></text>
    <ellipse
       style="fill:#00e100;fill-opacity:1;stroke:#050e05;stroke-width:0.450181;stroke-miterlimit:4;stroke-dasharray:none;stroke-dashoffset:0;stroke-opacity:1"
       id="path833-3-6"
       cx="53.343052"
       cy="129.99641"
       rx="9.0680094"
       ry="5.2454586" />
    <text
       xml:space="preserve"
       style="font-size:2.46886px;line-height:1.25;font-family:sans-serif;text-align:center;text-anchor:middle;stroke-width:0.0771517"
       x="53.467861"
       y="129.08313"
       id="text837-6-2"><tspan
         sodipodi:role="line"
         x="53.467861"
         y="129.08313"
         style="font-size:2.46886px;text-align:center;text-anchor:middle;stroke-width:0.0771517"
         id="tspan875-8">Im Sommer</tspan><tspan
         sodipodi:role="line"
         x="53.467861"
         y="132.1692"
         style="font-size:2.46886px;text-align:center;text-anchor:middle;stroke-width:0.0771517"
         id="tspan1438">ist es schön</tspan></text>
    <path
       style="fill:none;stroke:#000000;stroke-width:0.829026;stroke-linecap:butt;stroke-linejoin:miter;stroke-miterlimit:4;stroke-dasharray:none;stroke-opacity:1"
       d="m 34.233641,128.66815 6.831836,0.0917"
       id="path1267-7" />
    <path
       style="fill:none;stroke:#000000;stroke-width:0.829026;stroke-linecap:butt;stroke-linejoin:miter;stroke-miterlimit:4;stroke-dasharray:none;stroke-opacity:1"
       d="m 34.179517,131.5925 6.83184,0.0917"
       id="path1267-6-9" />
    <text
       xml:space="preserve"
       style="font-size:3.03526px;line-height:1.25;font-family:sans-serif;fill:#0600d9;fill-opacity:1;stroke-width:0.0632343"
       x="10.186772"
       y="115.98038"
       id="text1291-2"
       transform="scale(0.95831282,1.0435006)"><tspan
         sodipodi:role="line"
         id="tspan1289-0"
         x="10.186772"
         y="115.98038"
         style="font-size:3.03526px;fill:#0600d9;fill-opacity:1;stroke-width:0.0632343">Beispiel: Inhaltlich identisch</tspan></text>
    <path
       style="fill:none;stroke:#c10000;stroke-width:1.17994;stroke-linecap:butt;stroke-linejoin:miter;stroke-miterlimit:4;stroke-dasharray:none;stroke-opacity:1"
       d="m 97.525405,124.78111 8.339495,9.92706"
       id="path1480" />
    <path
       style="fill:none;stroke:#c10000;stroke-width:1.17083;stroke-linecap:butt;stroke-linejoin:miter;stroke-miterlimit:4;stroke-dasharray:none;stroke-opacity:1"
       d="m 106.17374,124.93214 -8.206097,9.93352"
       id="path1480-3" />
    <text
       xml:space="preserve"
       style="font-size:3.03526px;line-height:1.25;font-family:sans-serif;fill:#0600d9;fill-opacity:1;stroke-width:0.0632343"
       x="75.84536"
       y="116.00475"
       id="text1291-2-6"
       transform="scale(0.95831282,1.0435006)"><tspan
         sodipodi:role="line"
         id="tspan1289-0-7"
         x="75.84536"
         y="116.00475"
         style="font-size:3.03526px;fill:#0600d9;fill-opacity:1;stroke-width:0.0632343">Beispiel: Inhaltlich verschieden</tspan></text>
    <path
       id="path1295-27-5"
       style="fill:none;fill-opacity:1;stroke:#000000;stroke-width:0.5;stroke-linecap:butt;stroke-linejoin:miter;stroke-miterlimit:4;stroke-dasharray:none;stroke-opacity:1"
       d="m 75.628216,116.48657 c -4.004016,0.002 -4.072061,-9e-4 -4.014742,1.71411 0.0547,1.63672 -0.0262,1.7397 -0.0016,3.24063 -1.08268,0.37976 -1.096317,1.30802 -1.052647,3.58376 0.07391,3.85173 -0.04809,3.82584 0,7.69772 0.04808,3.87185 0.118298,3.82366 5.176943,3.84886 5.058648,0.0252 46.61232,5.9e-4 51.77152,0 5.15921,-6e-4 5.12984,0.014 5.17694,-3.84886 0.0471,-3.8629 0.0484,-3.80274 0,-7.69772 -0.0484,-3.89495 0.006,-3.86976 -5.17694,-3.84886 -1.04611,0.004 -4.30744,0.006 -7.71064,0.007 0.0237,-1.15205 0.0255,-1.47381 -0.007,-2.98224 -0.0375,-1.73421 0.004,-1.72411 -4.01474,-1.71411 -4.01886,0.01 -36.142931,-0.003 -40.146903,0 z m -63.076769,0.0243 c -4.0040149,0.002 -4.0720596,-10e-4 -4.0147416,1.71359 0.054701,1.63672 -0.026206,1.74022 -0.00155,3.24115 -1.0831032,0.37966 -1.096322,1.30772 -1.0526488,3.58376 0.073908,3.85173 -0.048085,3.82584 0,7.69772 0.048081,3.87185 0.1182985,3.82366 5.1769444,3.84886 5.058646,0.0252 46.611808,5.9e-4 51.770998,0 5.159206,-6e-4 5.130353,0.014 5.177462,-3.84886 0.04711,-3.8629 0.04836,-3.80274 0,-7.69772 -0.04839,-3.89495 0.005,-3.86976 -5.177462,-3.84886 -1.046094,0.004 -4.306985,0.005 -7.710122,0.006 0.02369,-1.15152 0.02544,-1.47408 -0.0072,-2.98225 -0.03753,-1.73421 0.0041,-1.72359 -4.014742,-1.71359 -4.018862,0.01 -36.142933,-0.003 -40.146904,0 z" />
  </g>
</svg>
